{
    "asset": {
        "generator": "FBX2glTF v0.9.7",
        "version": "2.0"
    },
    "scene": 0,
    "buffers": [
        {
            "byteLength": 35317136,
            "uri": "buffer.bin"
        }
    ],
    "bufferViews": [
        {
            "buffer": 0,
            "byteLength": 300,
            "byteOffset": 0
        },
        {
            "buffer": 0,
            "byteLength": 1200,
            "byteOffset": 300
        },
        {
            "buffer": 0,
            "byteLength": 3417564,
            "byteOffset": 1500,
            "target": 34963
        },
        {
            "buffer": 0,
            "byteLength": 6835260,
            "byteOffset": 3419064,
            "target": 34962
        },
        {
            "buffer": 0,
            "byteLength": 6835260,
            "byteOffset": 10254324,
            "target": 34962
        },
        {
            "buffer": 0,
            "byteLength": 4556840,
            "byteOffset": 17089584,
            "target": 34962
        },
        {
            "buffer": 0,
            "byteLength": 4556840,
            "byteOffset": 21646424,
            "target": 34962
        },
        {
            "buffer": 0,
            "byteLength": 9113680,
            "byteOffset": 26203264,
            "target": 34962
        },
        {
            "buffer": 0,
            "byteLength": 192,
            "byteOffset": 35316944
        }
    ],
    "scenes": [
        {
            "name": "Root Scene",
            "nodes": [
                0
            ]
        }
    ],
    "accessors": [
        {
            "componentType": 5126,
            "type": "SCALAR",
            "count": 75,
            "bufferView": 0,
            "byteOffset": 0,
            "min": [
                0.0
            ],
            "max": [
                3.08333325386047
            ]
        },
        {
            "componentType": 5126,
            "type": "VEC4",
            "count": 75,
            "bufferView": 1,
            "byteOffset": 0
        },
        {
            "componentType": 5125,
            "type": "SCALAR",
            "count": 854391,
            "bufferView": 2,
            "byteOffset": 0
        },
        {
            "componentType": 5126,
            "type": "VEC3",
            "count": 569605,
            "bufferView": 3,
            "byteOffset": 0,
            "min": [
                -0.0276623200625181,
                -0.0417685881257057,
                -0.0282184090465307
            ],
            "max": [
                0.0447644703090191,
                0.0399125404655933,
                0.0107811903581023
            ]
        },
        {
            "componentType": 5126,
            "type": "VEC3",
            "count": 569605,
            "bufferView": 4,
            "byteOffset": 0
        },
        {
            "componentType": 5126,
            "type": "VEC2",
            "count": 569605,
            "bufferView": 5,
            "byteOffset": 0
        },
        {
            "componentType": 5123,
            "type": "VEC4",
            "count": 569605,
            "bufferView": 6,
            "byteOffset": 0
        },
        {
            "componentType": 5126,
            "type": "VEC4",
            "count": 569605,
            "bufferView": 7,
            "byteOffset": 0
        },
        {
            "componentType": 5126,
            "type": "MAT4",
            "count": 3,
            "bufferView": 8,
            "byteOffset": 0
        }
    ],
    "images": [
        {
            "name": "Channel_unwrapChekcerShader_Diffuse.jpg",
            "uri": "Channel_unwrapChekcerShader_Diffuse.jpg"
        }
    ],
    "samplers": [
        {}
    ],
    "textures": [
        {
            "name": "file1",
            "sampler": 0,
            "source": 0
        }
    ],
    "materials": [
        {
            "name": "file1Material",
            "alphaMode": "OPAQUE",
            "extras": {
                "fromFBX": {
                    "shadingModel": "Lambert",
                    "isTruePBR": false
                }
            },
            "pbrMetallicRoughness": {
                "baseColorTexture": {
                    "index": 0,
                    "texCoord": 0
                },
                "baseColorFactor": [
                    0.800000011920929,
                    0.800000011920929,
                    0.800000011920929,
                    1.0
                ],
                "metallicFactor": 0.200000002980232,
                "roughnessFactor": 0.800000011920929
            }
        }
    ],
    "meshes": [
        {
            "name": "ZBrushPolyMesh3D_2",
            "primitives": [
                {
                    "material": 0,
                    "mode": 4,
                    "attributes": {
                        "JOINTS_0": 6,
                        "NORMAL": 4,
                        "POSITION": 3,
                        "TEXCOORD_0": 5,
                        "WEIGHTS_0": 7
                    },
                    "indices": 2
                }
            ]
        }
    ],
    "skins": [
        {
            "joints": [
                2,
                3,
                4
            ],
            "inverseBindMatrices": 8,
            "skeleton": 2
        }
    ],
    "animations": [
        {
            "name": "Take 001",
            "channels": [
                {
                    "sampler": 0,
                    "target": {
                        "node": 3,
                        "path": "rotation"
                    }
                }
            ],
            "samplers": [
                {
                    "input": 0,
                    "interpolation": "LINEAR",
                    "output": 1
                }
            ]
        }
    ],
    "nodes": [
        {
            "name": "RootNode",
            "translation": [
                0.0,
                0.0,
                0.0
            ],
            "rotation": [
                0.0,
                0.0,
                0.0,
                1.0
            ],
            "scale": [
                1.0,
                1.0,
                1.0
            ],
            "children": [
                1,
                2
            ]
        },
        {
            "name": "ZBrushPolyMesh3D_2",
            "translation": [
                0.0,
                0.0468324422836304,
                0.0
            ],
            "rotation": [
                0.0,
                0.0,
                0.0,
                1.0
            ],
            "scale": [
                1.0,
                1.0,
                1.0
            ],
            "mesh": 0,
            "skin": 0
        },
        {
            "name": "joint1",
            "translation": [
                0.0122893415391445,
                0.0609820932149887,
                -0.0067288801074028
            ],
            "rotation": [
                -0.553674340248108,
                0.373683363199234,
                -0.424473166465759,
                0.611251175403595
            ],
            "scale": [
                1.0,
                1.0,
                1.0
            ],
            "children": [
                3
            ]
        },
        {
            "name": "joint2",
            "translation": [
                0.016337601467967,
                0.00120745971798897,
                -0.00274139549583197
            ],
            "rotation": [
                0.0172142796218395,
                -0.131111621856689,
                0.508694410324097,
                0.850731134414673
            ],
            "scale": [
                1.0,
                1.0,
                1.0
            ],
            "children": [
                4
            ]
        },
        {
            "name": "joint3",
            "translation": [
                0.0120922010391951,
                -0.000996205722913146,
                -0.00204472965560853
            ],
            "rotation": [
                0.0368557274341583,
                -0.706145644187927,
                0.0368557274341583,
                0.706145644187927
            ],
            "scale": [
                1.0,
                1.0,
                1.0
            ]
        }
    ]
}