{"accessors":[{"bufferView":0,"componentType":5125,"count":520026,"type":"SCALAR"},{"bufferView":1,"componentType":5126,"count":520026,"max":[4.39624929428101,1.39171707630157,0.840228021144867],"min":[-5.19018125534058,-2.20073843002319,-11.7822675704956],"type":"VEC3"},{"bufferView":2,"componentType":5126,"count":520026,"type":"VEC2"}],"asset":{"generator":"ply_to_gltf","version":"2.0"},"bufferViews":[{"buffer":0,"byteLength":2080104,"target":34963},{"buffer":0,"byteLength":6240312,"byteOffset":2080104,"target":34962},{"buffer":0,"byteLength":4160208,"byteOffset":8320416,"target":34962}],"buffers":[{"byteLength":12480624,"uri":"map_1089717289_densified_mesh_textured_lod0.bin"}],"images":[{"uri":"map_1089717289_densified_mesh_textured_4096.jpg"}],"materials":[{"pbrMetallicRoughness":{"baseColorTexture":{"index":0}}}],"meshes":[{"primitives":[{"attributes":{"POSITION":1,"TEXCOORD_0":2},"indices":0,"material":0,"mode":4}]}],"nodes":[{"mesh":0}],"samplers":[{"magFilter":9728,"minFilter":9728,"wrapR":10497,"wrapS":33071,"wrapT":33071}],"scene":0,"scenes":[{"nodes":[0]}],"textures":[{"sampler":0,"source":0}]}
